<mxfile host="app.diagrams.net" agent="Mozilla/5.0 (Windows NT 10.0; Win64; x64) AppleWebKit/537.36 (KHTML, like Gecko) Chrome/129.0.0.0 Safari/537.36" version="24.7.16">
  <diagram id="C5RBs43oDa-KdzZeNtuy" name="Page-1">
    <mxGraphModel dx="2501" dy="772" grid="1" gridSize="10" guides="1" tooltips="1" connect="1" arrows="1" fold="1" page="1" pageScale="1" pageWidth="827" pageHeight="1169" math="0" shadow="0">
      <root>
        <mxCell id="WIyWlLk6GJQsqaUBKTNV-0" />
        <mxCell id="WIyWlLk6GJQsqaUBKTNV-1" parent="WIyWlLk6GJQsqaUBKTNV-0" />
        <mxCell id="T9JNQIHDcTBS1-KBtXzk-0" value="Main" style="rounded=0;whiteSpace=wrap;html=1;" parent="WIyWlLk6GJQsqaUBKTNV-1" vertex="1">
          <mxGeometry x="40" y="80" width="190" height="60" as="geometry" />
        </mxCell>
        <mxCell id="T9JNQIHDcTBS1-KBtXzk-2" value="Đăng nhập với coach" style="rounded=0;whiteSpace=wrap;html=1;" parent="WIyWlLk6GJQsqaUBKTNV-1" vertex="1">
          <mxGeometry x="160" y="230" width="120" height="60" as="geometry" />
        </mxCell>
        <mxCell id="T9JNQIHDcTBS1-KBtXzk-3" value="Đăng nhập với student" style="rounded=0;whiteSpace=wrap;html=1;" parent="WIyWlLk6GJQsqaUBKTNV-1" vertex="1">
          <mxGeometry x="10" y="230" width="120" height="60" as="geometry" />
        </mxCell>
        <mxCell id="T9JNQIHDcTBS1-KBtXzk-4" value="Đăng nhập với guest" style="rounded=0;whiteSpace=wrap;html=1;" parent="WIyWlLk6GJQsqaUBKTNV-1" vertex="1">
          <mxGeometry x="-140" y="230" width="120" height="60" as="geometry" />
        </mxCell>
        <mxCell id="T9JNQIHDcTBS1-KBtXzk-5" value="Exit" style="rounded=0;whiteSpace=wrap;html=1;" parent="WIyWlLk6GJQsqaUBKTNV-1" vertex="1">
          <mxGeometry x="-190" y="130" width="120" height="60" as="geometry" />
        </mxCell>
        <mxCell id="T9JNQIHDcTBS1-KBtXzk-14" value="" style="endArrow=classic;html=1;rounded=0;exitX=0.619;exitY=1.005;exitDx=0;exitDy=0;entryX=0.5;entryY=0;entryDx=0;entryDy=0;exitPerimeter=0;" parent="WIyWlLk6GJQsqaUBKTNV-1" source="T9JNQIHDcTBS1-KBtXzk-0" target="T9JNQIHDcTBS1-KBtXzk-2" edge="1">
          <mxGeometry width="50" height="50" relative="1" as="geometry">
            <mxPoint x="220" y="200" as="sourcePoint" />
            <mxPoint x="270" y="150" as="targetPoint" />
          </mxGeometry>
        </mxCell>
        <mxCell id="T9JNQIHDcTBS1-KBtXzk-17" value="" style="endArrow=classic;html=1;rounded=0;entryX=1;entryY=0.555;entryDx=0;entryDy=0;entryPerimeter=0;exitX=0.1;exitY=1.004;exitDx=0;exitDy=0;exitPerimeter=0;" parent="WIyWlLk6GJQsqaUBKTNV-1" source="T9JNQIHDcTBS1-KBtXzk-0" target="T9JNQIHDcTBS1-KBtXzk-5" edge="1">
          <mxGeometry width="50" height="50" relative="1" as="geometry">
            <mxPoint x="260" y="213" as="sourcePoint" />
            <mxPoint x="260" y="160" as="targetPoint" />
          </mxGeometry>
        </mxCell>
        <mxCell id="T9JNQIHDcTBS1-KBtXzk-19" value="Đăng nhập với Admin" style="rounded=0;whiteSpace=wrap;html=1;" parent="WIyWlLk6GJQsqaUBKTNV-1" vertex="1">
          <mxGeometry x="300" y="230" width="120" height="60" as="geometry" />
        </mxCell>
        <mxCell id="T9JNQIHDcTBS1-KBtXzk-23" value="Hiển thi course" style="rounded=0;whiteSpace=wrap;html=1;" parent="WIyWlLk6GJQsqaUBKTNV-1" vertex="1">
          <mxGeometry x="-340" y="190" width="120" height="60" as="geometry" />
        </mxCell>
        <mxCell id="T9JNQIHDcTBS1-KBtXzk-28" value="" style="endArrow=classic;html=1;rounded=0;entryX=0.5;entryY=0;entryDx=0;entryDy=0;exitX=0.439;exitY=1.002;exitDx=0;exitDy=0;exitPerimeter=0;" parent="WIyWlLk6GJQsqaUBKTNV-1" source="T9JNQIHDcTBS1-KBtXzk-0" target="T9JNQIHDcTBS1-KBtXzk-3" edge="1">
          <mxGeometry width="50" height="50" relative="1" as="geometry">
            <mxPoint x="130" y="140" as="sourcePoint" />
            <mxPoint x="280" y="60" as="targetPoint" />
          </mxGeometry>
        </mxCell>
        <mxCell id="T9JNQIHDcTBS1-KBtXzk-29" value="" style="endArrow=classic;html=1;rounded=0;entryX=0.5;entryY=0;entryDx=0;entryDy=0;exitX=0.316;exitY=1;exitDx=0;exitDy=0;exitPerimeter=0;" parent="WIyWlLk6GJQsqaUBKTNV-1" source="T9JNQIHDcTBS1-KBtXzk-0" target="T9JNQIHDcTBS1-KBtXzk-4" edge="1">
          <mxGeometry width="50" height="50" relative="1" as="geometry">
            <mxPoint x="230" y="110" as="sourcePoint" />
            <mxPoint x="280" y="60" as="targetPoint" />
          </mxGeometry>
        </mxCell>
        <mxCell id="T9JNQIHDcTBS1-KBtXzk-31" value="" style="endArrow=classic;html=1;rounded=0;entryX=0.5;entryY=0;entryDx=0;entryDy=0;exitX=0.75;exitY=1;exitDx=0;exitDy=0;" parent="WIyWlLk6GJQsqaUBKTNV-1" source="T9JNQIHDcTBS1-KBtXzk-0" target="T9JNQIHDcTBS1-KBtXzk-19" edge="1">
          <mxGeometry width="50" height="50" relative="1" as="geometry">
            <mxPoint x="150" y="140" as="sourcePoint" />
            <mxPoint x="380" y="230" as="targetPoint" />
          </mxGeometry>
        </mxCell>
        <mxCell id="T9JNQIHDcTBS1-KBtXzk-32" value="Thoát ra màn hình chính" style="rounded=0;whiteSpace=wrap;html=1;" parent="WIyWlLk6GJQsqaUBKTNV-1" vertex="1">
          <mxGeometry x="-340" y="360" width="120" height="60" as="geometry" />
        </mxCell>
        <mxCell id="T9JNQIHDcTBS1-KBtXzk-33" value="Đăng ký thành sinh viên" style="rounded=0;whiteSpace=wrap;html=1;" parent="WIyWlLk6GJQsqaUBKTNV-1" vertex="1">
          <mxGeometry x="-340" y="280" width="120" height="60" as="geometry" />
        </mxCell>
        <mxCell id="T9JNQIHDcTBS1-KBtXzk-34" value="" style="endArrow=classic;html=1;rounded=0;entryX=1;entryY=0.5;entryDx=0;entryDy=0;" parent="WIyWlLk6GJQsqaUBKTNV-1" target="T9JNQIHDcTBS1-KBtXzk-23" edge="1">
          <mxGeometry width="50" height="50" relative="1" as="geometry">
            <mxPoint x="-140" y="240" as="sourcePoint" />
            <mxPoint x="-90" y="190" as="targetPoint" />
          </mxGeometry>
        </mxCell>
        <mxCell id="T9JNQIHDcTBS1-KBtXzk-35" value="" style="endArrow=classic;html=1;rounded=0;entryX=1;entryY=0.5;entryDx=0;entryDy=0;" parent="WIyWlLk6GJQsqaUBKTNV-1" target="T9JNQIHDcTBS1-KBtXzk-33" edge="1">
          <mxGeometry width="50" height="50" relative="1" as="geometry">
            <mxPoint x="-140" y="270" as="sourcePoint" />
            <mxPoint x="-90" y="220" as="targetPoint" />
          </mxGeometry>
        </mxCell>
        <mxCell id="T9JNQIHDcTBS1-KBtXzk-36" value="" style="endArrow=classic;html=1;rounded=0;entryX=1.007;entryY=0.587;entryDx=0;entryDy=0;entryPerimeter=0;" parent="WIyWlLk6GJQsqaUBKTNV-1" target="T9JNQIHDcTBS1-KBtXzk-32" edge="1">
          <mxGeometry width="50" height="50" relative="1" as="geometry">
            <mxPoint x="-120" y="290" as="sourcePoint" />
            <mxPoint x="-70" y="240" as="targetPoint" />
          </mxGeometry>
        </mxCell>
        <mxCell id="T9JNQIHDcTBS1-KBtXzk-37" value="Nhập tk mk&amp;nbsp;" style="rounded=0;whiteSpace=wrap;html=1;" parent="WIyWlLk6GJQsqaUBKTNV-1" vertex="1">
          <mxGeometry x="10" y="310" width="120" height="60" as="geometry" />
        </mxCell>
        <mxCell id="T9JNQIHDcTBS1-KBtXzk-39" value="thành công" style="rounded=0;whiteSpace=wrap;html=1;" parent="WIyWlLk6GJQsqaUBKTNV-1" vertex="1">
          <mxGeometry x="-60" y="390" width="120" height="60" as="geometry" />
        </mxCell>
        <mxCell id="T9JNQIHDcTBS1-KBtXzk-40" value="Quên mật khẩu" style="rounded=0;whiteSpace=wrap;html=1;" parent="WIyWlLk6GJQsqaUBKTNV-1" vertex="1">
          <mxGeometry x="80" y="390" width="120" height="60" as="geometry" />
        </mxCell>
        <mxCell id="T9JNQIHDcTBS1-KBtXzk-41" value="" style="endArrow=classic;html=1;rounded=0;entryX=0.479;entryY=-0.011;entryDx=0;entryDy=0;entryPerimeter=0;exitX=0.477;exitY=1.007;exitDx=0;exitDy=0;exitPerimeter=0;" parent="WIyWlLk6GJQsqaUBKTNV-1" source="T9JNQIHDcTBS1-KBtXzk-3" target="T9JNQIHDcTBS1-KBtXzk-37" edge="1">
          <mxGeometry width="50" height="50" relative="1" as="geometry">
            <mxPoint x="45" y="290" as="sourcePoint" />
            <mxPoint x="95" y="240" as="targetPoint" />
          </mxGeometry>
        </mxCell>
        <mxCell id="T9JNQIHDcTBS1-KBtXzk-42" value="" style="endArrow=classic;html=1;rounded=0;entryX=0.5;entryY=0;entryDx=0;entryDy=0;" parent="WIyWlLk6GJQsqaUBKTNV-1" target="T9JNQIHDcTBS1-KBtXzk-39" edge="1">
          <mxGeometry width="50" height="50" relative="1" as="geometry">
            <mxPoint x="30" y="370" as="sourcePoint" />
            <mxPoint x="80" y="320" as="targetPoint" />
          </mxGeometry>
        </mxCell>
        <mxCell id="T9JNQIHDcTBS1-KBtXzk-43" value="" style="endArrow=classic;html=1;rounded=0;entryX=0.5;entryY=0;entryDx=0;entryDy=0;" parent="WIyWlLk6GJQsqaUBKTNV-1" target="T9JNQIHDcTBS1-KBtXzk-40" edge="1">
          <mxGeometry width="50" height="50" relative="1" as="geometry">
            <mxPoint x="110" y="370" as="sourcePoint" />
            <mxPoint x="160" y="320" as="targetPoint" />
          </mxGeometry>
        </mxCell>
        <mxCell id="zbz6_a2VOciEQgi8c7zg-0" value="Hiển thị toàn bộ khóa học" style="rounded=0;whiteSpace=wrap;html=1;" vertex="1" parent="WIyWlLk6GJQsqaUBKTNV-1">
          <mxGeometry x="-200" y="390" width="120" height="60" as="geometry" />
        </mxCell>
        <mxCell id="zbz6_a2VOciEQgi8c7zg-1" value="Đăng ký khóa học" style="rounded=0;whiteSpace=wrap;html=1;" vertex="1" parent="WIyWlLk6GJQsqaUBKTNV-1">
          <mxGeometry x="-200" y="470" width="120" height="60" as="geometry" />
        </mxCell>
        <mxCell id="zbz6_a2VOciEQgi8c7zg-2" value="Học khóa học" style="rounded=0;whiteSpace=wrap;html=1;" vertex="1" parent="WIyWlLk6GJQsqaUBKTNV-1">
          <mxGeometry x="-60" y="480" width="120" height="60" as="geometry" />
        </mxCell>
      </root>
    </mxGraphModel>
  </diagram>
</mxfile>
